<svg width="359" height="129" viewBox="0 0 359 129" fill="none" xmlns="http://www.w3.org/2000/svg">
<path d="M106.283 61.515L132.832 87.9842H126.228L99.6789 61.515L126.228 36.8838H132.832L106.282 61.5154L106.283 61.515Z" fill="black"/>
<path d="M254.333 87.9842V47.3622L232.613 64.3647L210.894 47.3622V87.9842H205.86V36.8838L232.621 57.7622L259.314 36.8838V87.9842H254.333Z" fill="black"/>
<path d="M318.331 87.9847C316.021 87.9847 313.8 87.6444 311.67 86.9623C309.54 86.2806 307.365 85.1444 305.146 83.5537L308.679 79.9477C310.401 81.0816 312.088 81.8755 313.742 82.3287C315.396 82.7819 317.038 83.0084 318.669 83.0084C319.937 83.0084 321.228 82.771 322.542 82.2942C323.856 81.8175 325.033 81.1377 326.075 80.2536C327.117 79.3695 327.978 78.2805 328.658 76.988C329.337 75.6956 329.677 74.2332 329.677 72.6004C329.677 70.6046 329.065 69.0964 327.841 68.0763C326.617 67.0563 325.075 66.2396 323.216 65.6274C321.356 65.0156 319.351 64.4596 317.197 63.9601C315.043 63.4617 313.037 62.7243 311.179 61.7496C309.319 60.7748 307.777 59.4134 306.554 57.6669C305.329 55.9213 304.718 53.5285 304.718 50.4899C304.718 48.1321 305.205 46.1023 306.179 44.4015C307.153 42.7008 308.41 41.2946 309.951 40.1834C311.491 39.0722 313.236 38.2447 315.184 37.7004C317.133 37.1562 319.103 36.8838 321.098 36.8838C323.317 36.8838 325.503 37.2133 327.656 37.8723C329.808 38.5312 332.017 39.6566 334.283 41.2464L330.682 44.8523C329.05 43.7185 327.408 42.9368 325.754 42.5063C324.101 42.0758 322.436 41.8601 320.76 41.8601C319.446 41.8601 318.144 42.0078 316.853 42.3024C315.562 42.5974 314.384 43.0742 313.319 43.7312C312.255 44.3883 311.394 45.2729 310.737 46.3841C310.08 47.4963 309.752 48.868 309.752 50.4999C309.752 52.4957 310.363 54.0265 311.588 55.0914C312.811 56.1573 314.353 57.0301 316.213 57.7108C318.071 58.3915 320.077 59.0032 322.231 59.5475C324.385 60.0918 326.391 60.8517 328.25 61.8265C330.109 62.8013 331.65 64.1164 332.875 65.7718C334.098 67.4273 334.711 69.7063 334.711 72.6094C334.711 75.0593 334.303 77.2363 333.488 79.1405C332.672 81.0452 331.539 82.6554 330.089 83.9705C328.64 85.2856 326.906 86.283 324.89 86.9637C322.873 87.6444 320.687 87.9838 318.331 87.9838L318.331 87.9847Z" fill="black"/>
<path d="M185.715 88.3704H152.769V82.9126H185.715V88.3704Z" fill="#006600"/>
<path d="M185.715 36.8838H152.769V42.3416H185.715V36.8838Z" fill="black"/>
<path d="M180.752 59.8982H153.2V65.356H180.752V59.8982Z" fill="#BB0000"/>
<path d="M284.797 36.4261V88.3177H279.545V36.4261H284.797Z" fill="black"/>
<path d="M101.396 99.4232L101.352 98.3378L104.884 94.6987H105.898L103.167 97.5815L102.668 98.1331L101.396 99.4232ZM100.613 100.927V94.6987H101.503V100.927H100.613ZM105.026 100.927L102.473 97.9552L103.069 97.2968L106.067 100.927H105.026ZM108.775 100.98C108.271 100.98 107.826 100.876 107.44 100.669C107.061 100.461 106.764 100.177 106.55 99.8147C106.343 99.4529 106.239 99.0377 106.239 98.5691C106.239 98.1005 106.34 97.6853 106.542 97.3235C106.749 96.9616 107.031 96.6799 107.387 96.4782C107.749 96.2706 108.155 96.1668 108.606 96.1668C109.063 96.1668 109.466 96.2676 109.816 96.4693C110.166 96.671 110.439 96.9557 110.634 97.3235C110.836 97.6853 110.937 98.1094 110.937 98.5958C110.937 98.6314 110.934 98.6729 110.928 98.7204C110.928 98.7678 110.925 98.8123 110.919 98.8538H106.906V98.2399H110.474L110.127 98.4534C110.133 98.1509 110.071 97.881 109.94 97.6438C109.81 97.4065 109.629 97.2226 109.398 97.0921C109.172 96.9557 108.908 96.8875 108.606 96.8875C108.309 96.8875 108.045 96.9557 107.814 97.0921C107.583 97.2226 107.402 97.4095 107.271 97.6527C107.141 97.8899 107.075 98.1628 107.075 98.4712V98.6136C107.075 98.928 107.147 99.2097 107.289 99.4588C107.437 99.702 107.642 99.8918 107.903 100.028C108.164 100.165 108.463 100.233 108.802 100.233C109.08 100.233 109.332 100.185 109.558 100.091C109.789 99.9956 109.991 99.8533 110.163 99.6635L110.634 100.215C110.421 100.464 110.154 100.654 109.834 100.785C109.519 100.915 109.166 100.98 108.775 100.98ZM114.641 96.1668C115.026 96.1668 115.365 96.2409 115.655 96.3892C115.952 96.5375 116.183 96.7629 116.349 97.0654C116.515 97.3679 116.598 97.7505 116.598 98.2132V100.927H115.744V98.3111C115.744 97.8543 115.632 97.5103 115.406 97.279C115.187 97.0476 114.875 96.932 114.472 96.932C114.169 96.932 113.905 96.9913 113.68 97.1099C113.455 97.2286 113.28 97.4035 113.155 97.6349C113.036 97.8662 112.977 98.1539 112.977 98.4979V100.927H112.123V96.2113H112.942V97.4836L112.808 97.1455C112.962 96.8371 113.2 96.5968 113.52 96.4248C113.84 96.2528 114.214 96.1668 114.641 96.1668ZM118.297 102.706C118.071 102.706 117.852 102.668 117.638 102.591C117.425 102.52 117.241 102.413 117.087 102.27L117.452 101.63C117.57 101.743 117.701 101.829 117.843 101.888C117.985 101.947 118.137 101.977 118.297 101.977C118.504 101.977 118.677 101.923 118.813 101.817C118.949 101.71 119.077 101.52 119.196 101.247L119.489 100.598L119.578 100.491L121.429 96.2113H122.265L119.978 101.398C119.842 101.731 119.688 101.992 119.516 102.181C119.35 102.371 119.166 102.505 118.964 102.582C118.763 102.665 118.54 102.706 118.297 102.706ZM119.418 101.078L117.265 96.2113H118.155L119.987 100.411L119.418 101.078ZM125.842 100.927V99.9304L125.797 99.7436V98.0441C125.797 97.6823 125.691 97.4035 125.477 97.2078C125.269 97.0061 124.955 96.9053 124.534 96.9053C124.255 96.9053 123.982 96.9527 123.715 97.0476C123.448 97.1366 123.223 97.2582 123.039 97.4124L122.683 96.7718C122.926 96.5761 123.217 96.4278 123.555 96.3269C123.899 96.2202 124.258 96.1668 124.632 96.1668C125.278 96.1668 125.777 96.324 126.127 96.6384C126.477 96.9527 126.651 97.4332 126.651 98.0797V100.927H125.842ZM124.294 100.98C123.944 100.98 123.635 100.921 123.368 100.802C123.107 100.684 122.906 100.521 122.763 100.313C122.621 100.099 122.55 99.8592 122.55 99.5923C122.55 99.3372 122.609 99.1059 122.728 98.8983C122.852 98.6907 123.051 98.5246 123.324 98.4C123.603 98.2755 123.976 98.2132 124.445 98.2132H125.94V98.8271H124.481C124.053 98.8271 123.766 98.8983 123.617 99.0407C123.469 99.183 123.395 99.355 123.395 99.5567C123.395 99.788 123.487 99.9749 123.671 100.117C123.855 100.254 124.11 100.322 124.436 100.322C124.756 100.322 125.035 100.251 125.272 100.108C125.516 99.966 125.691 99.7584 125.797 99.4855L125.966 100.073C125.854 100.352 125.655 100.574 125.37 100.74C125.086 100.9 124.727 100.98 124.294 100.98ZM131.556 97.3857H134.759V98.142H131.556V97.3857ZM131.636 100.153H135.266V100.927H130.746V94.6987H135.142V95.4728H131.636V100.153ZM138.47 100.98C138.013 100.98 137.604 100.879 137.242 100.678C136.886 100.476 136.604 100.194 136.397 99.8325C136.189 99.4707 136.085 99.0496 136.085 98.5691C136.085 98.0886 136.189 97.6705 136.397 97.3146C136.604 96.9527 136.886 96.671 137.242 96.4693C137.604 96.2676 138.013 96.1668 138.47 96.1668C138.867 96.1668 139.226 96.2558 139.546 96.4337C139.867 96.6117 140.122 96.8786 140.312 97.2345C140.507 97.5904 140.605 98.0352 140.605 98.5691C140.605 99.1029 140.51 99.5478 140.321 99.9037C140.137 100.26 139.885 100.529 139.564 100.713C139.244 100.891 138.879 100.98 138.47 100.98ZM138.541 100.233C138.838 100.233 139.105 100.165 139.342 100.028C139.585 99.8918 139.775 99.6991 139.911 99.4499C140.054 99.1949 140.125 98.9013 140.125 98.5691C140.125 98.231 140.054 97.9403 139.911 97.6971C139.775 97.448 139.585 97.2552 139.342 97.1188C139.105 96.9824 138.838 96.9142 138.541 96.9142C138.239 96.9142 137.969 96.9824 137.731 97.1188C137.494 97.2552 137.304 97.448 137.162 97.6971C137.02 97.9403 136.948 98.231 136.948 98.5691C136.948 98.9013 137.02 99.1949 137.162 99.4499C137.304 99.6991 137.494 99.8918 137.731 100.028C137.969 100.165 138.239 100.233 138.541 100.233ZM140.152 100.927V99.6546L140.205 98.5602L140.116 97.4658V94.325H140.97V100.927H140.152ZM144.57 100.98C144.167 100.98 143.811 100.906 143.503 100.758C143.2 100.61 142.963 100.384 142.791 100.082C142.625 99.7732 142.542 99.3877 142.542 98.925V96.2113H143.396V98.8271C143.396 99.2898 143.506 99.6368 143.725 99.8681C143.95 100.099 144.265 100.215 144.668 100.215C144.965 100.215 145.223 100.156 145.442 100.037C145.662 99.9126 145.831 99.7347 145.949 99.5033C146.068 99.2661 146.127 98.9813 146.127 98.6492V96.2113H146.982V100.927H146.172V99.6546L146.305 99.9927C146.151 100.307 145.92 100.55 145.611 100.722C145.303 100.894 144.956 100.98 144.57 100.98ZM150.663 100.98C150.182 100.98 149.752 100.876 149.373 100.669C148.999 100.461 148.705 100.177 148.492 99.8147C148.278 99.4529 148.172 99.0377 148.172 98.5691C148.172 98.1005 148.278 97.6853 148.492 97.3235C148.705 96.9616 148.999 96.6799 149.373 96.4782C149.752 96.2706 150.182 96.1668 150.663 96.1668C151.09 96.1668 151.47 96.2528 151.802 96.4248C152.14 96.5909 152.401 96.84 152.585 97.1722L151.935 97.5904C151.781 97.359 151.591 97.19 151.366 97.0832C151.146 96.9705 150.909 96.9142 150.654 96.9142C150.346 96.9142 150.07 96.9824 149.827 97.1188C149.583 97.2552 149.391 97.448 149.248 97.6971C149.106 97.9403 149.035 98.231 149.035 98.5691C149.035 98.9072 149.106 99.2008 149.248 99.4499C149.391 99.6991 149.583 99.8918 149.827 100.028C150.07 100.165 150.346 100.233 150.654 100.233C150.909 100.233 151.146 100.18 151.366 100.073C151.591 99.9601 151.781 99.788 151.935 99.5567L152.585 99.966C152.401 100.292 152.14 100.544 151.802 100.722C151.47 100.894 151.09 100.98 150.663 100.98ZM156.618 100.927V99.9304L156.573 99.7436V98.0441C156.573 97.6823 156.467 97.4035 156.253 97.2078C156.045 97.0061 155.731 96.9053 155.31 96.9053C155.031 96.9053 154.758 96.9527 154.491 97.0476C154.224 97.1366 153.999 97.2582 153.815 97.4124L153.459 96.7718C153.702 96.5761 153.993 96.4278 154.331 96.3269C154.675 96.2202 155.034 96.1668 155.408 96.1668C156.054 96.1668 156.553 96.324 156.903 96.6384C157.253 96.9527 157.428 97.4332 157.428 98.0797V100.927H156.618ZM155.07 100.98C154.72 100.98 154.411 100.921 154.144 100.802C153.883 100.684 153.682 100.521 153.539 100.313C153.397 100.099 153.326 99.8592 153.326 99.5923C153.326 99.3372 153.385 99.1059 153.504 98.8983C153.628 98.6907 153.827 98.5246 154.1 98.4C154.379 98.2755 154.752 98.2132 155.221 98.2132H156.716V98.8271H155.257C154.829 98.8271 154.542 98.8983 154.393 99.0407C154.245 99.183 154.171 99.355 154.171 99.5567C154.171 99.788 154.263 99.9749 154.447 100.117C154.631 100.254 154.886 100.322 155.212 100.322C155.532 100.322 155.811 100.251 156.048 100.108C156.292 99.966 156.467 99.7584 156.573 99.4855L156.742 100.073C156.63 100.352 156.431 100.574 156.146 100.74C155.862 100.9 155.503 100.98 155.07 100.98ZM160.628 100.98C160.153 100.98 159.785 100.853 159.524 100.598C159.263 100.343 159.133 99.9779 159.133 99.5033V95.1792H159.987V99.4677C159.987 99.7228 160.049 99.9185 160.174 100.055C160.304 100.191 160.488 100.26 160.725 100.26C160.992 100.26 161.215 100.185 161.393 100.037L161.66 100.651C161.529 100.764 161.372 100.847 161.188 100.9C161.01 100.954 160.823 100.98 160.628 100.98ZM158.332 96.9142V96.2113H161.339V96.9142H158.332ZM162.692 100.927V96.2113H163.546V100.927H162.692ZM163.119 95.3037C162.953 95.3037 162.814 95.2504 162.701 95.1436C162.594 95.0368 162.541 94.9063 162.541 94.7521C162.541 94.5919 162.594 94.4585 162.701 94.3517C162.814 94.2449 162.953 94.1916 163.119 94.1916C163.285 94.1916 163.422 94.2449 163.529 94.3517C163.641 94.4526 163.698 94.5801 163.698 94.7343C163.698 94.8945 163.644 95.0309 163.538 95.1436C163.431 95.2504 163.291 95.3037 163.119 95.3037ZM167.197 100.98C166.722 100.98 166.301 100.876 165.934 100.669C165.566 100.461 165.275 100.177 165.062 99.8147C164.848 99.447 164.741 99.0318 164.741 98.5691C164.741 98.1005 164.848 97.6853 165.062 97.3235C165.275 96.9616 165.566 96.6799 165.934 96.4782C166.301 96.2706 166.722 96.1668 167.197 96.1668C167.666 96.1668 168.084 96.2706 168.452 96.4782C168.825 96.6799 169.116 96.9616 169.323 97.3235C169.537 97.6794 169.644 98.0946 169.644 98.5691C169.644 99.0377 169.537 99.4529 169.323 99.8147C169.116 100.177 168.825 100.461 168.452 100.669C168.084 100.876 167.666 100.98 167.197 100.98ZM167.197 100.233C167.5 100.233 167.769 100.165 168.007 100.028C168.25 99.8918 168.44 99.6991 168.576 99.4499C168.713 99.1949 168.781 98.9013 168.781 98.5691C168.781 98.231 168.713 97.9403 168.576 97.6971C168.44 97.448 168.25 97.2552 168.007 97.1188C167.769 96.9824 167.5 96.9142 167.197 96.9142C166.895 96.9142 166.625 96.9824 166.387 97.1188C166.15 97.2552 165.96 97.448 165.818 97.6971C165.676 97.9403 165.604 98.231 165.604 98.5691C165.604 98.9013 165.676 99.1949 165.818 99.4499C165.96 99.6991 166.15 99.8918 166.387 100.028C166.625 100.165 166.895 100.233 167.197 100.233ZM173.343 96.1668C173.729 96.1668 174.067 96.2409 174.357 96.3892C174.654 96.5375 174.885 96.7629 175.051 97.0654C175.217 97.3679 175.3 97.7505 175.3 98.2132V100.927H174.446V98.3111C174.446 97.8543 174.334 97.5103 174.108 97.279C173.889 97.0476 173.577 96.932 173.174 96.932C172.871 96.932 172.608 96.9913 172.382 97.1099C172.157 97.2286 171.982 97.4035 171.857 97.6349C171.739 97.8662 171.679 98.1539 171.679 98.4979V100.927H170.825V96.2113H171.644V97.4836L171.51 97.1455C171.664 96.8371 171.902 96.5968 172.222 96.4248C172.542 96.2528 172.916 96.1668 173.343 96.1668ZM179.395 100.927V94.6987H180.125L182.919 99.4055H182.527L185.285 94.6987H186.015L186.024 100.927H185.17L185.161 96.0422H185.365L182.91 100.171H182.5L180.027 96.0422H180.249V100.927H179.395ZM190.696 100.927V99.9304L190.651 99.7436V98.0441C190.651 97.6823 190.544 97.4035 190.331 97.2078C190.123 97.0061 189.809 96.9053 189.388 96.9053C189.109 96.9053 188.836 96.9527 188.569 97.0476C188.302 97.1366 188.077 97.2582 187.893 97.4124L187.537 96.7718C187.78 96.5761 188.071 96.4278 188.409 96.3269C188.753 96.2202 189.112 96.1668 189.486 96.1668C190.132 96.1668 190.63 96.324 190.98 96.6384C191.33 96.9527 191.505 97.4332 191.505 98.0797V100.927H190.696ZM189.148 100.98C188.798 100.98 188.489 100.921 188.222 100.802C187.961 100.684 187.76 100.521 187.617 100.313C187.475 100.099 187.404 99.8592 187.404 99.5923C187.404 99.3372 187.463 99.1059 187.582 98.8983C187.706 98.6907 187.905 98.5246 188.178 98.4C188.456 98.2755 188.83 98.2132 189.299 98.2132H190.794V98.8271H189.334C188.907 98.8271 188.62 98.8983 188.471 99.0407C188.323 99.183 188.249 99.355 188.249 99.5567C188.249 99.788 188.341 99.9749 188.525 100.117C188.709 100.254 188.964 100.322 189.29 100.322C189.61 100.322 189.889 100.251 190.126 100.108C190.369 99.966 190.544 99.7584 190.651 99.4855L190.82 100.073C190.708 100.352 190.509 100.574 190.224 100.74C189.939 100.9 189.581 100.98 189.148 100.98ZM195.604 96.1668C195.99 96.1668 196.328 96.2409 196.618 96.3892C196.915 96.5375 197.146 96.7629 197.312 97.0654C197.478 97.3679 197.561 97.7505 197.561 98.2132V100.927H196.707V98.3111C196.707 97.8543 196.595 97.5103 196.369 97.279C196.15 97.0476 195.838 96.932 195.435 96.932C195.132 96.932 194.868 96.9913 194.643 97.1099C194.418 97.2286 194.243 97.4035 194.118 97.6349C193.999 97.8662 193.94 98.1539 193.94 98.4979V100.927H193.086V96.2113H193.905V97.4836L193.771 97.1455C193.925 96.8371 194.163 96.5968 194.483 96.4248C194.803 96.2528 195.177 96.1668 195.604 96.1668ZM202.069 100.927V99.9304L202.025 99.7436V98.0441C202.025 97.6823 201.918 97.4035 201.705 97.2078C201.497 97.0061 201.183 96.9053 200.761 96.9053C200.483 96.9053 200.21 96.9527 199.943 97.0476C199.676 97.1366 199.451 97.2582 199.267 97.4124L198.911 96.7718C199.154 96.5761 199.445 96.4278 199.783 96.3269C200.127 96.2202 200.486 96.1668 200.859 96.1668C201.506 96.1668 202.004 96.324 202.354 96.6384C202.704 96.9527 202.879 97.4332 202.879 98.0797V100.927H202.069ZM200.521 100.98C200.171 100.98 199.863 100.921 199.596 100.802C199.335 100.684 199.133 100.521 198.991 100.313C198.849 100.099 198.777 99.8592 198.777 99.5923C198.777 99.3372 198.837 99.1059 198.955 98.8983C199.08 98.6907 199.279 98.5246 199.551 98.4C199.83 98.2755 200.204 98.2132 200.673 98.2132H202.167V98.8271H200.708C200.281 98.8271 199.993 98.8983 199.845 99.0407C199.697 99.183 199.623 99.355 199.623 99.5567C199.623 99.788 199.715 99.9749 199.898 100.117C200.082 100.254 200.337 100.322 200.664 100.322C200.984 100.322 201.263 100.251 201.5 100.108C201.743 99.966 201.918 99.7584 202.025 99.4855L202.194 100.073C202.081 100.352 201.883 100.574 201.598 100.74C201.313 100.9 200.954 100.98 200.521 100.98ZM206.524 102.706C206.091 102.706 205.67 102.644 205.261 102.52C204.857 102.401 204.528 102.229 204.273 102.003L204.682 101.345C204.902 101.535 205.172 101.683 205.492 101.79C205.812 101.903 206.147 101.959 206.497 101.959C207.055 101.959 207.464 101.829 207.725 101.568C207.986 101.307 208.117 100.909 208.117 100.375V99.3788L208.206 98.4445L208.161 97.5014V96.2113H208.971V100.286C208.971 101.117 208.763 101.728 208.348 102.119C207.933 102.511 207.325 102.706 206.524 102.706ZM206.417 100.731C205.96 100.731 205.551 100.636 205.189 100.446C204.833 100.251 204.549 99.9808 204.335 99.6368C204.128 99.2928 204.024 98.8953 204.024 98.4445C204.024 97.9878 204.128 97.5904 204.335 97.2523C204.549 96.9082 204.833 96.6413 205.189 96.4515C205.551 96.2617 205.96 96.1668 206.417 96.1668C206.821 96.1668 207.188 96.2498 207.52 96.4159C207.853 96.5761 208.117 96.8252 208.312 97.1633C208.514 97.5014 208.615 97.9285 208.615 98.4445C208.615 98.9546 208.514 99.3788 208.312 99.7169C208.117 100.055 207.853 100.31 207.52 100.482C207.188 100.648 206.821 100.731 206.417 100.731ZM206.515 99.9838C206.829 99.9838 207.108 99.9185 207.351 99.788C207.595 99.6575 207.784 99.4766 207.921 99.2453C208.063 99.014 208.134 98.747 208.134 98.4445C208.134 98.142 208.063 97.8751 207.921 97.6438C207.784 97.4124 207.595 97.2345 207.351 97.1099C207.108 96.9794 206.829 96.9142 206.515 96.9142C206.201 96.9142 205.919 96.9794 205.67 97.1099C205.427 97.2345 205.234 97.4124 205.091 97.6438C204.955 97.8751 204.887 98.142 204.887 98.4445C204.887 98.747 204.955 99.014 205.091 99.2453C205.234 99.4766 205.427 99.6575 205.67 99.788C205.919 99.9185 206.201 99.9838 206.515 99.9838ZM212.703 100.98C212.198 100.98 211.754 100.876 211.368 100.669C210.988 100.461 210.692 100.177 210.478 99.8147C210.271 99.4529 210.167 99.0377 210.167 98.5691C210.167 98.1005 210.268 97.6853 210.469 97.3235C210.677 96.9616 210.959 96.6799 211.315 96.4782C211.676 96.2706 212.083 96.1668 212.534 96.1668C212.99 96.1668 213.394 96.2676 213.744 96.4693C214.094 96.671 214.366 96.9557 214.562 97.3235C214.764 97.6853 214.865 98.1094 214.865 98.5958C214.865 98.6314 214.862 98.6729 214.856 98.7204C214.856 98.7678 214.853 98.8123 214.847 98.8538H210.834V98.2399H214.402L214.055 98.4534C214.061 98.1509 213.999 97.881 213.868 97.6438C213.738 97.4065 213.557 97.2226 213.325 97.0921C213.1 96.9557 212.836 96.8875 212.534 96.8875C212.237 96.8875 211.973 96.9557 211.742 97.0921C211.51 97.2226 211.329 97.4095 211.199 97.6527C211.068 97.8899 211.003 98.1628 211.003 98.4712V98.6136C211.003 98.928 211.074 99.2097 211.217 99.4588C211.365 99.702 211.57 99.8918 211.831 100.028C212.092 100.165 212.391 100.233 212.729 100.233C213.008 100.233 213.26 100.185 213.486 100.091C213.717 99.9956 213.919 99.8533 214.091 99.6635L214.562 100.215C214.349 100.464 214.082 100.654 213.761 100.785C213.447 100.915 213.094 100.98 212.703 100.98ZM221.95 96.1668C222.329 96.1668 222.664 96.2409 222.955 96.3892C223.246 96.5375 223.471 96.7629 223.631 97.0654C223.797 97.3679 223.88 97.7505 223.88 98.2132V100.927H223.026V98.3111C223.026 97.8543 222.92 97.5103 222.706 97.279C222.492 97.0476 222.193 96.932 221.807 96.932C221.523 96.932 221.274 96.9913 221.06 97.1099C220.846 97.2286 220.68 97.4035 220.562 97.6349C220.449 97.8662 220.393 98.1539 220.393 98.4979V100.927H219.539V98.3111C219.539 97.8543 219.432 97.5103 219.218 97.279C219.011 97.0476 218.711 96.932 218.32 96.932C218.041 96.932 217.795 96.9913 217.581 97.1099C217.368 97.2286 217.201 97.4035 217.083 97.6349C216.964 97.8662 216.905 98.1539 216.905 98.4979V100.927H216.051V96.2113H216.869V97.4658L216.736 97.1455C216.884 96.8371 217.112 96.5968 217.421 96.4248C217.729 96.2528 218.088 96.1668 218.498 96.1668C218.948 96.1668 219.337 96.2795 219.663 96.5049C219.989 96.7244 220.203 97.0595 220.304 97.5103L219.957 97.3679C220.099 97.0061 220.348 96.7155 220.704 96.496C221.06 96.2765 221.475 96.1668 221.95 96.1668ZM227.552 100.98C227.048 100.98 226.603 100.876 226.217 100.669C225.838 100.461 225.541 100.177 225.328 99.8147C225.12 99.4529 225.016 99.0377 225.016 98.5691C225.016 98.1005 225.117 97.6853 225.319 97.3235C225.526 96.9616 225.808 96.6799 226.164 96.4782C226.526 96.2706 226.932 96.1668 227.383 96.1668C227.84 96.1668 228.243 96.2676 228.593 96.4693C228.943 96.671 229.216 96.9557 229.411 97.3235C229.613 97.6853 229.714 98.1094 229.714 98.5958C229.714 98.6314 229.711 98.6729 229.705 98.7204C229.705 98.7678 229.702 98.8123 229.696 98.8538H225.683V98.2399H229.251L228.904 98.4534C228.91 98.1509 228.848 97.881 228.717 97.6438C228.587 97.4065 228.406 97.2226 228.175 97.0921C227.949 96.9557 227.685 96.8875 227.383 96.8875C227.086 96.8875 226.822 96.9557 226.591 97.0921C226.36 97.2226 226.179 97.4095 226.048 97.6527C225.918 97.8899 225.852 98.1628 225.852 98.4712V98.6136C225.852 98.928 225.924 99.2097 226.066 99.4588C226.214 99.702 226.419 99.8918 226.68 100.028C226.941 100.165 227.24 100.233 227.579 100.233C227.857 100.233 228.109 100.185 228.335 100.091C228.566 99.9956 228.768 99.8533 228.94 99.6635L229.411 100.215C229.198 100.464 228.931 100.654 228.611 100.785C228.296 100.915 227.943 100.98 227.552 100.98ZM233.418 96.1668C233.804 96.1668 234.142 96.2409 234.432 96.3892C234.729 96.5375 234.96 96.7629 235.126 97.0654C235.292 97.3679 235.375 97.7505 235.375 98.2132V100.927H234.521V98.3111C234.521 97.8543 234.409 97.5103 234.183 97.279C233.964 97.0476 233.652 96.932 233.249 96.932C232.946 96.932 232.682 96.9913 232.457 97.1099C232.232 97.2286 232.057 97.4035 231.932 97.6349C231.813 97.8662 231.754 98.1539 231.754 98.4979V100.927H230.9V96.2113H231.719V97.4836L231.585 97.1455C231.739 96.8371 231.977 96.5968 232.297 96.4248C232.617 96.2528 232.991 96.1668 233.418 96.1668ZM238.576 100.98C238.101 100.98 237.733 100.853 237.472 100.598C237.211 100.343 237.081 99.9779 237.081 99.5033V95.1792H237.935V99.4677C237.935 99.7228 237.997 99.9185 238.122 100.055C238.252 100.191 238.436 100.26 238.673 100.26C238.94 100.26 239.163 100.185 239.341 100.037L239.608 100.651C239.477 100.764 239.32 100.847 239.136 100.9C238.958 100.954 238.771 100.98 238.576 100.98ZM236.28 96.9142V96.2113H239.287V96.9142H236.28ZM245.544 100.927V94.6987H246.433V100.927H245.544ZM250.691 96.1668C251.077 96.1668 251.415 96.2409 251.706 96.3892C252.002 96.5375 252.234 96.7629 252.4 97.0654C252.566 97.3679 252.649 97.7505 252.649 98.2132V100.927H251.795V98.3111C251.795 97.8543 251.682 97.5103 251.457 97.279C251.237 97.0476 250.926 96.932 250.522 96.932C250.22 96.932 249.956 96.9913 249.731 97.1099C249.505 97.2286 249.33 97.4035 249.206 97.6349C249.087 97.8662 249.028 98.1539 249.028 98.4979V100.927H248.174V96.2113H248.992V97.4836L248.859 97.1455C249.013 96.8371 249.25 96.5968 249.57 96.4248C249.891 96.2528 250.264 96.1668 250.691 96.1668ZM254.354 100.927V95.7931C254.354 95.3304 254.488 94.9627 254.755 94.6898C255.027 94.411 255.413 94.2716 255.911 94.2716C256.095 94.2716 256.27 94.2954 256.436 94.3428C256.608 94.3843 256.754 94.4526 256.872 94.5475L256.614 95.197C256.525 95.1258 256.424 95.0724 256.312 95.0368C256.199 94.9953 256.08 94.9745 255.956 94.9745C255.707 94.9745 255.517 95.0457 255.386 95.1881C255.256 95.3245 255.191 95.5291 255.191 95.802V96.4337L255.208 96.8252V100.927H254.354ZM253.553 96.9142V96.2113H256.561V96.9142H253.553ZM259.317 100.98C258.842 100.98 258.421 100.876 258.053 100.669C257.685 100.461 257.395 100.177 257.181 99.8147C256.968 99.447 256.861 99.0318 256.861 98.5691C256.861 98.1005 256.968 97.6853 257.181 97.3235C257.395 96.9616 257.685 96.6799 258.053 96.4782C258.421 96.2706 258.842 96.1668 259.317 96.1668C259.785 96.1668 260.203 96.2706 260.571 96.4782C260.945 96.6799 261.235 96.9616 261.443 97.3235C261.657 97.6794 261.763 98.0946 261.763 98.5691C261.763 99.0377 261.657 99.4529 261.443 99.8147C261.235 100.177 260.945 100.461 260.571 100.669C260.203 100.876 259.785 100.98 259.317 100.98ZM259.317 100.233C259.619 100.233 259.889 100.165 260.126 100.028C260.369 99.8918 260.559 99.6991 260.696 99.4499C260.832 99.1949 260.9 98.9013 260.9 98.5691C260.9 98.231 260.832 97.9403 260.696 97.6971C260.559 97.448 260.369 97.2552 260.126 97.1188C259.889 96.9824 259.619 96.9142 259.317 96.9142C259.014 96.9142 258.744 96.9824 258.507 97.1188C258.27 97.2552 258.08 97.448 257.937 97.6971C257.795 97.9403 257.724 98.231 257.724 98.5691C257.724 98.9013 257.795 99.1949 257.937 99.4499C258.08 99.6991 258.27 99.8918 258.507 100.028C258.744 100.165 259.014 100.233 259.317 100.233ZM262.945 100.927V96.2113H263.763V97.4925L263.683 97.1722C263.814 96.846 264.033 96.5968 264.342 96.4248C264.65 96.2528 265.03 96.1668 265.48 96.1668V96.9943C265.445 96.9883 265.409 96.9854 265.374 96.9854C265.344 96.9854 265.314 96.9854 265.285 96.9854C264.828 96.9854 264.466 97.1218 264.199 97.3946C263.932 97.6675 263.799 98.0619 263.799 98.578V100.927H262.945ZM272.432 96.1668C272.812 96.1668 273.147 96.2409 273.438 96.3892C273.728 96.5375 273.954 96.7629 274.114 97.0654C274.28 97.3679 274.363 97.7505 274.363 98.2132V100.927H273.509V98.3111C273.509 97.8543 273.402 97.5103 273.188 97.279C272.975 97.0476 272.675 96.932 272.29 96.932C272.005 96.932 271.756 96.9913 271.542 97.1099C271.329 97.2286 271.163 97.4035 271.044 97.6349C270.931 97.8662 270.875 98.1539 270.875 98.4979V100.927H270.021V98.3111C270.021 97.8543 269.914 97.5103 269.701 97.279C269.493 97.0476 269.193 96.932 268.802 96.932C268.523 96.932 268.277 96.9913 268.064 97.1099C267.85 97.2286 267.684 97.4035 267.565 97.6349C267.447 97.8662 267.387 98.1539 267.387 98.4979V100.927H266.533V96.2113H267.352V97.4658L267.218 97.1455C267.367 96.8371 267.595 96.5968 267.903 96.4248C268.212 96.2528 268.571 96.1668 268.98 96.1668C269.431 96.1668 269.819 96.2795 270.145 96.5049C270.472 96.7244 270.685 97.0595 270.786 97.5103L270.439 97.3679C270.581 97.0061 270.831 96.7155 271.186 96.496C271.542 96.2765 271.958 96.1668 272.432 96.1668ZM278.862 100.927V99.9304L278.817 99.7436V98.0441C278.817 97.6823 278.711 97.4035 278.497 97.2078C278.289 97.0061 277.975 96.9053 277.554 96.9053C277.275 96.9053 277.002 96.9527 276.735 97.0476C276.468 97.1366 276.243 97.2582 276.059 97.4124L275.703 96.7718C275.946 96.5761 276.237 96.4278 276.575 96.3269C276.919 96.2202 277.278 96.1668 277.652 96.1668C278.298 96.1668 278.797 96.324 279.146 96.6384C279.496 96.9527 279.671 97.4332 279.671 98.0797V100.927H278.862ZM277.314 100.98C276.964 100.98 276.655 100.921 276.388 100.802C276.127 100.684 275.926 100.521 275.783 100.313C275.641 100.099 275.57 99.8592 275.57 99.5923C275.57 99.3372 275.629 99.1059 275.748 98.8983C275.872 98.6907 276.071 98.5246 276.344 98.4C276.623 98.2755 276.996 98.2132 277.465 98.2132H278.96V98.8271H277.5C277.073 98.8271 276.786 98.8983 276.637 99.0407C276.489 99.183 276.415 99.355 276.415 99.5567C276.415 99.788 276.507 99.9749 276.691 100.117C276.875 100.254 277.13 100.322 277.456 100.322C277.776 100.322 278.055 100.251 278.292 100.108C278.536 99.966 278.711 99.7584 278.817 99.4855L278.986 100.073C278.874 100.352 278.675 100.574 278.39 100.74C278.105 100.9 277.747 100.98 277.314 100.98ZM282.871 100.98C282.397 100.98 282.029 100.853 281.768 100.598C281.507 100.343 281.377 99.9779 281.377 99.5033V95.1792H282.231V99.4677C282.231 99.7228 282.293 99.9185 282.418 100.055C282.548 100.191 282.732 100.26 282.969 100.26C283.236 100.26 283.459 100.185 283.637 100.037L283.904 100.651C283.773 100.764 283.616 100.847 283.432 100.9C283.254 100.954 283.067 100.98 282.871 100.98ZM280.576 96.9142V96.2113H283.583V96.9142H280.576ZM284.936 100.927V96.2113H285.79V100.927H284.936ZM285.363 95.3037C285.197 95.3037 285.058 95.2504 284.945 95.1436C284.838 95.0368 284.785 94.9063 284.785 94.7521C284.785 94.5919 284.838 94.4585 284.945 94.3517C285.058 94.2449 285.197 94.1916 285.363 94.1916C285.529 94.1916 285.666 94.2449 285.773 94.3517C285.885 94.4526 285.942 94.5801 285.942 94.7343C285.942 94.8945 285.888 95.0309 285.781 95.1436C285.675 95.2504 285.535 95.3037 285.363 95.3037ZM289.441 100.98C288.966 100.98 288.545 100.876 288.178 100.669C287.81 100.461 287.519 100.177 287.306 99.8147C287.092 99.447 286.985 99.0318 286.985 98.5691C286.985 98.1005 287.092 97.6853 287.306 97.3235C287.519 96.9616 287.81 96.6799 288.178 96.4782C288.545 96.2706 288.966 96.1668 289.441 96.1668C289.91 96.1668 290.328 96.2706 290.695 96.4782C291.069 96.6799 291.36 96.9616 291.567 97.3235C291.781 97.6794 291.888 98.0946 291.888 98.5691C291.888 99.0377 291.781 99.4529 291.567 99.8147C291.36 100.177 291.069 100.461 290.695 100.669C290.328 100.876 289.91 100.98 289.441 100.98ZM289.441 100.233C289.743 100.233 290.013 100.165 290.251 100.028C290.494 99.8918 290.684 99.6991 290.82 99.4499C290.956 99.1949 291.025 98.9013 291.025 98.5691C291.025 98.231 290.956 97.9403 290.82 97.6971C290.684 97.448 290.494 97.2552 290.251 97.1188C290.013 96.9824 289.743 96.9142 289.441 96.9142C289.138 96.9142 288.869 96.9824 288.631 97.1188C288.394 97.2552 288.204 97.448 288.062 97.6971C287.919 97.9403 287.848 98.231 287.848 98.5691C287.848 98.9013 287.919 99.1949 288.062 99.4499C288.204 99.6991 288.394 99.8918 288.631 100.028C288.869 100.165 289.138 100.233 289.441 100.233ZM295.587 96.1668C295.973 96.1668 296.311 96.2409 296.601 96.3892C296.898 96.5375 297.129 96.7629 297.295 97.0654C297.461 97.3679 297.544 97.7505 297.544 98.2132V100.927H296.69V98.3111C296.69 97.8543 296.578 97.5103 296.352 97.279C296.133 97.0476 295.821 96.932 295.418 96.932C295.115 96.932 294.851 96.9913 294.626 97.1099C294.401 97.2286 294.226 97.4035 294.101 97.6349C293.982 97.8662 293.923 98.1539 293.923 98.4979V100.927H293.069V96.2113H293.888V97.4836L293.754 97.1455C293.908 96.8371 294.146 96.5968 294.466 96.4248C294.786 96.2528 295.16 96.1668 295.587 96.1668ZM303.454 100.998C302.98 100.998 302.526 100.927 302.093 100.785C301.66 100.636 301.319 100.446 301.07 100.215L301.399 99.5211C301.636 99.7287 301.939 99.9007 302.306 100.037C302.674 100.174 303.057 100.242 303.454 100.242C303.816 100.242 304.11 100.2 304.335 100.117C304.56 100.034 304.727 99.9215 304.833 99.7791C304.94 99.6309 304.993 99.4648 304.993 99.2809C304.993 99.0673 304.922 98.8953 304.78 98.7648C304.644 98.6343 304.463 98.5305 304.237 98.4534C304.018 98.3704 303.775 98.2992 303.508 98.2399C303.241 98.1806 302.971 98.1124 302.698 98.0352C302.431 97.9522 302.185 97.8484 301.959 97.7238C301.74 97.5993 301.562 97.4332 301.426 97.2256C301.289 97.012 301.221 96.7392 301.221 96.407C301.221 96.0867 301.304 95.7931 301.47 95.5262C301.642 95.2533 301.903 95.0368 302.253 94.8767C302.609 94.7106 303.06 94.6275 303.605 94.6275C303.967 94.6275 304.326 94.675 304.682 94.7699C305.038 94.8648 305.346 95.0012 305.607 95.1792L305.314 95.891C305.047 95.713 304.765 95.5855 304.469 95.5084C304.172 95.4253 303.884 95.3838 303.605 95.3838C303.256 95.3838 302.968 95.4283 302.742 95.5173C302.517 95.6063 302.351 95.7249 302.244 95.8732C302.143 96.0215 302.093 96.1876 302.093 96.3714C302.093 96.5909 302.161 96.7659 302.298 96.8964C302.44 97.0269 302.621 97.1307 302.84 97.2078C303.066 97.2849 303.312 97.3561 303.579 97.4213C303.846 97.4806 304.113 97.5489 304.38 97.626C304.652 97.7031 304.899 97.8039 305.118 97.9285C305.343 98.053 305.524 98.2191 305.661 98.4267C305.797 98.6343 305.865 98.9013 305.865 99.2275C305.865 99.5419 305.779 99.8355 305.607 100.108C305.435 100.375 305.168 100.592 304.807 100.758C304.451 100.918 304 100.998 303.454 100.998ZM307.158 102.706C306.933 102.706 306.714 102.668 306.5 102.591C306.287 102.52 306.103 102.413 305.948 102.27L306.313 101.63C306.432 101.743 306.562 101.829 306.705 101.888C306.847 101.947 306.998 101.977 307.158 101.977C307.366 101.977 307.538 101.923 307.675 101.817C307.811 101.71 307.938 101.52 308.057 101.247L308.351 100.598L308.44 100.491L310.29 96.2113H311.127L308.84 101.398C308.704 101.731 308.549 101.992 308.377 102.181C308.211 102.371 308.027 102.505 307.826 102.582C307.624 102.665 307.402 102.706 307.158 102.706ZM308.28 101.078L306.126 96.2113H307.016L308.849 100.411L308.28 101.078ZM313.215 100.98C312.824 100.98 312.45 100.927 312.094 100.82C311.744 100.713 311.469 100.583 311.267 100.429L311.623 99.7525C311.825 99.8889 312.074 100.005 312.37 100.099C312.667 100.194 312.969 100.242 313.278 100.242C313.675 100.242 313.96 100.185 314.132 100.073C314.31 99.9601 314.399 99.8029 314.399 99.6012C314.399 99.4529 314.345 99.3372 314.239 99.2542C314.132 99.1712 313.99 99.1089 313.812 99.0673C313.64 99.0258 313.447 98.9902 313.233 98.9606C313.02 98.925 312.806 98.8835 312.593 98.836C312.379 98.7826 312.183 98.7115 312.005 98.6225C311.827 98.5276 311.685 98.4 311.578 98.2399C311.472 98.0738 311.418 97.8543 311.418 97.5815C311.418 97.2968 311.498 97.0476 311.658 96.8341C311.819 96.6206 312.044 96.4574 312.335 96.3447C312.631 96.2261 312.981 96.1668 313.385 96.1668C313.693 96.1668 314.004 96.2053 314.319 96.2825C314.639 96.3536 314.9 96.4574 315.102 96.5939L314.737 97.2701C314.523 97.1277 314.301 97.0298 314.07 96.9765C313.838 96.9231 313.607 96.8964 313.376 96.8964C313.002 96.8964 312.723 96.9587 312.539 97.0832C312.355 97.2019 312.263 97.3561 312.263 97.5459C312.263 97.706 312.317 97.8306 312.424 97.9196C312.536 98.0026 312.679 98.0679 312.851 98.1153C313.029 98.1628 313.224 98.2043 313.438 98.2399C313.651 98.2695 313.865 98.3111 314.079 98.3645C314.292 98.4119 314.485 98.4801 314.657 98.5691C314.835 98.6581 314.977 98.7826 315.084 98.9428C315.197 99.1029 315.253 99.3165 315.253 99.5834C315.253 99.8681 315.17 100.114 315.004 100.322C314.838 100.529 314.603 100.693 314.301 100.811C313.998 100.924 313.637 100.98 313.215 100.98ZM317.94 100.98C317.465 100.98 317.097 100.853 316.837 100.598C316.576 100.343 316.445 99.9779 316.445 99.5033V95.1792H317.299V99.4677C317.299 99.7228 317.361 99.9185 317.486 100.055C317.617 100.191 317.8 100.26 318.038 100.26C318.305 100.26 318.527 100.185 318.705 100.037L318.972 100.651C318.841 100.764 318.684 100.847 318.5 100.9C318.322 100.954 318.136 100.98 317.94 100.98ZM315.644 96.9142V96.2113H318.652V96.9142H315.644ZM321.948 100.98C321.444 100.98 320.999 100.876 320.613 100.669C320.234 100.461 319.937 100.177 319.724 99.8147C319.516 99.4529 319.412 99.0377 319.412 98.5691C319.412 98.1005 319.513 97.6853 319.715 97.3235C319.922 96.9616 320.204 96.6799 320.56 96.4782C320.922 96.2706 321.328 96.1668 321.779 96.1668C322.236 96.1668 322.639 96.2676 322.989 96.4693C323.339 96.671 323.612 96.9557 323.807 97.3235C324.009 97.6853 324.11 98.1094 324.11 98.5958C324.11 98.6314 324.107 98.6729 324.101 98.7204C324.101 98.7678 324.098 98.8123 324.092 98.8538H320.079V98.2399H323.647L323.3 98.4534C323.306 98.1509 323.244 97.881 323.114 97.6438C322.983 97.4065 322.802 97.2226 322.571 97.0921C322.345 96.9557 322.081 96.8875 321.779 96.8875C321.482 96.8875 321.218 96.9557 320.987 97.0921C320.756 97.2226 320.575 97.4095 320.444 97.6527C320.314 97.8899 320.249 98.1628 320.249 98.4712V98.6136C320.249 98.928 320.32 99.2097 320.462 99.4588C320.61 99.702 320.815 99.8918 321.076 100.028C321.337 100.165 321.637 100.233 321.975 100.233C322.253 100.233 322.506 100.185 322.731 100.091C322.962 99.9956 323.164 99.8533 323.336 99.6635L323.807 100.215C323.594 100.464 323.327 100.654 323.007 100.785C322.692 100.915 322.339 100.98 321.948 100.98ZM331.195 96.1668C331.575 96.1668 331.91 96.2409 332.2 96.3892C332.491 96.5375 332.717 96.7629 332.877 97.0654C333.043 97.3679 333.126 97.7505 333.126 98.2132V100.927H332.272V98.3111C332.272 97.8543 332.165 97.5103 331.951 97.279C331.738 97.0476 331.438 96.932 331.053 96.932C330.768 96.932 330.519 96.9913 330.305 97.1099C330.092 97.2286 329.926 97.4035 329.807 97.6349C329.694 97.8662 329.638 98.1539 329.638 98.4979V100.927H328.784V98.3111C328.784 97.8543 328.677 97.5103 328.464 97.279C328.256 97.0476 327.956 96.932 327.565 96.932C327.286 96.932 327.04 96.9913 326.826 97.1099C326.613 97.2286 326.447 97.4035 326.328 97.6349C326.21 97.8662 326.15 98.1539 326.15 98.4979V100.927H325.296V96.2113H326.115V97.4658L325.981 97.1455C326.129 96.8371 326.358 96.5968 326.666 96.4248C326.975 96.2528 327.334 96.1668 327.743 96.1668C328.194 96.1668 328.582 96.2795 328.908 96.5049C329.235 96.7244 329.448 97.0595 329.549 97.5103L329.202 97.3679C329.344 97.0061 329.594 96.7155 329.949 96.496C330.305 96.2765 330.721 96.1668 331.195 96.1668Z" fill="black"/>
<path d="M93.4428 109.654C93.4428 109.654 72.6742 91.877 30.6716 101.102L33.7354 95.0918C33.7354 95.0918 61.8265 92.4664 81.1046 101.169C81.1046 101.169 61.1856 89.3007 24.9842 92.7437L28.0543 84.7915C28.0543 84.7915 53.513 80.9041 86.472 102.274C86.472 102.274 59.3143 77.8248 26.767 82.6771L49.7862 29.801L62.8886 31.391L61.3246 35.0645C61.3246 35.0645 58.0325 35.1104 55.3741 36.4532L38.5283 78.4221C38.5283 78.4221 69.6879 81.0324 87.2085 99.4323C90.6785 103.076 87.2061 98.8675 87.2061 98.8675C87.2061 98.8675 72.0436 78.8911 44.8606 74.4238L56.2398 47.8733L67.619 21.3228C67.619 21.3228 92.1484 22.9223 100.043 35.8274C100.043 35.8274 84.302 25.4772 73.1168 28.101L56.1288 71.7287C56.1288 71.7287 89.6891 85.9426 93.4428 109.653V109.654Z" fill="#00ADEE"/>
</svg>
